<svg xmlns="http://www.w3.org/2000/svg" version="1.1" xmlns:xlink="http://www.w3.org/1999/xlink" viewBox="0 0 167.22 202.39">
  <!-- Generator: Adobe Illustrator 30.1.0, SVG Export Plug-In . SVG Version: 2.1.1 Build 136)  -->
  <defs>
    <style>
      .anim3_st0, .anim3_st1, .anim3_st2 {
        opacity: .2;
      }

      .anim3_st0, .anim3_st3 {
        fill: #45b388;
      }

      .anim3_st4 {
        fill: #13253b;
      }

      .anim3_st5 {
        fill: #fff;
      }

      .anim3_st6 {
        fill: #0cb5e9;
      }

      .anim3_st7 {
        fill: url(#grad_anim3);
        opacity: .47;
      }

      .anim3_st8 {
        isolation: isolate;
      }

      .anim3_st1, .anim3_st9 {
        fill: #201f22;
      }

      .anim3_st9 {
        mix-blend-mode: multiply;
        opacity: .1;
      }
    

      #anim3_pastille-main {
        transform-origin: 88.93px 99.12px;
      }
      .anim3_progress-ring {
        fill: none;
        stroke: #45b388;
        stroke-width: 2.5;
        stroke-linecap: round;
        transform: rotate(-90deg);
        transform-origin: 88.93px 99.12px;
        stroke-dasharray: 376;
        stroke-dashoffset: 376;
        animation: anim3_loop-progress 2.5s ease-in-out infinite;
      }
      @keyframes anim3_loop-progress {
        0%   { stroke-dashoffset: 376; opacity: 0.4; }
        50%  { stroke-dashoffset: 0; opacity: 1; }
        100% { stroke-dashoffset: -376; opacity: 0.4; }
      }

    </style>
    <linearGradient id="grad_anim3" data-name="Dégradé sans nom 18" x1="88.93" y1="52.54" x2="88.93" y2="109.26" gradientUnits="userSpaceOnUse">
      <stop offset=".05" stop-color="#13253b"/>
      <stop offset=".35" stop-color="#12263d"/>
      <stop offset=".51" stop-color="#112b45"/>
      <stop offset=".64" stop-color="#0f3352"/>
      <stop offset=".75" stop-color="#0c3f66"/>
      <stop offset=".85" stop-color="#084e7f"/>
      <stop offset=".94" stop-color="#04609d"/>
      <stop offset="1" stop-color="#0071b8"/>
    </linearGradient>
  </defs>
  <g class="anim3_st8">
    <g id="anim3_Calque_1">
    <circle class="anim3_progress-ring" cx="88.93" cy="99.12" r="60"/>

      <g id="anim3_pastille-main">
        <g>
          <circle class="anim3_st4" cx="88.93" cy="99.12" r="49.61"/>
          <path class="anim3_st7" d="M132.56,85.34c-2.77-12.59-11.5-23.87-24.99-29.32-5.46-2.21-11.71-3.47-18.65-3.47-6.45,0-12.32,1.09-17.53,3-14.24,5.25-23.52,16.78-26.12,29.79-2.88,14.44,9.55,20.68,26.12,22.89,5.52.74,11.5,1.03,17.53,1.03,6.43,0,12.82-.39,18.65-1.32,16.07-2.54,27.97-9.1,24.99-22.61Z"/>
        </g>
        <g>
          <g>
            <g>
              <path class="anim3_st3" d="M84.09,87.21v15.9c-.63,0-1.25.04-1.87.12-6.77.9-12.02,6.61-12.19,13.58v-13.86h0c0-7.13,5.31-14.44,12.2-15.58.61-.1,1.23-.16,1.87-.16Z"/>
              <path class="anim3_st3" d="M84.09,105.11v10.34c0,1.76-.69,3.41-1.87,4.61-.07.07-.13.13-.2.2-.04.03-.07.07-.11.1-.08.07-.16.14-.24.21-.08.06-.16.12-.24.18-.04.03-.07.05-.11.08-.08.06-.17.12-.26.17-.1.06-.19.12-.29.17-.02.01-.04.02-.05.03-.07.04-.14.08-.22.11-.08.04-.17.08-.25.12-.04.02-.08.04-.12.05-.05.02-.11.05-.16.07-.09.04-.19.07-.28.1-5.5,1.81-9.5,6.93-9.66,13v-13.86h0c0-.06,0-.12,0-.18.09-7.08,5.37-14.21,12.19-15.33.61-.1,1.23-.16,1.87-.16Z"/>
              <path class="anim3_st6" d="M70.03,97.87v.36h0c0-.12,0-.24,0-.36Z"/>
            </g>
            <path class="anim3_st5" d="M104.15,87.21c0,.11,0,.22,0,.33,0,.02,0,.04,0,.06,0,.11,0,.23-.01.34,0,.12-.01.24-.02.36,0,.12-.01.24-.02.36,0,.1-.02.19-.02.29,0,.04,0,.08-.01.11-.01.11-.02.22-.03.32-.04.36-.09.72-.16,1.08-.04.24-.09.48-.14.72-.02.11-.05.22-.07.32,0,.02,0,.04-.02.06-.02.11-.05.22-.08.32-.03.12-.06.23-.09.35-.02.08-.05.17-.07.25-.05.17-.1.33-.15.49-.07.21-.14.42-.22.63-.12.34-.26.67-.4,1-.04.08-.08.17-.11.25-.02.04-.03.07-.05.11-.04.1-.09.19-.14.28-.11.21-.22.43-.33.63-.06.11-.11.21-.17.31-.12.2-.24.41-.37.61-.06.1-.13.19-.19.29-.09.14-.19.28-.29.41-.1.14-.21.28-.32.42,0,.02-.02.03-.04.05-.06.08-.12.15-.19.23-.02.03-.04.05-.07.08-.06.07-.12.14-.18.21-.08.09-.16.18-.24.27-.06.07-.13.13-.19.2-.03.03-.06.07-.1.1-.07.07-.14.14-.2.2-.03.03-.06.06-.09.09-.07.07-.14.13-.21.2-.12.11-.24.22-.37.32,0,0-.01.01-.02.02-.12.11-.25.21-.38.31-.11.08-.22.16-.32.24-.06.05-.13.09-.19.14-.1.07-.2.14-.31.21-.14.09-.28.18-.43.27-1.94,1.17-4.29,1.85-7.03,1.85l-6,.17v-15.9h20.06Z"/>
            <g class="anim3_st2">
              <path class="anim3_st3" d="M104.15,87.21c0,.11,0,.22,0,.33,0,.02,0,.04,0,.06,0,.11,0,.23-.01.34,0,.12-.01.24-.02.36,0,.12-.01.24-.02.36,0,.1-.02.19-.02.29,0,.04,0,.08-.01.11-.01.11-.02.22-.03.32-.04.36-.09.72-.16,1.08-.04.24-.08.48-.14.72-.02.11-.05.22-.07.32,0,.02,0,.04-.02.06-.02.11-.05.22-.08.32-.03.12-.06.23-.09.35-.02.08-.05.17-.07.25-.05.17-.1.33-.15.49-.07.21-.14.43-.22.63-.12.34-.26.67-.4,1-.04.08-.08.17-.11.25-.02.04-.03.07-.05.11-.04.1-.09.19-.14.28-.11.21-.22.43-.33.63-.06.11-.11.21-.17.31-.12.2-.24.41-.37.61-.06.1-.13.19-.19.29-.09.14-.19.28-.29.41-.1.14-.21.28-.32.42,0,.02-.02.03-.04.05-.06.08-.12.15-.19.23-.02.03-.04.05-.07.08-.06.07-.12.14-.18.21-.08.09-.16.18-.24.27-.06.07-.13.13-.19.2-.03.03-.06.07-.1.1-.07.07-.14.14-.2.2-.03.03-.06.06-.09.09-.07.07-.14.13-.21.2-.12.11-.24.22-.37.32,0,0-.01.01-.02.02-.12.11-.25.21-.38.31-.11.08-.22.16-.32.24-.06.05-.13.09-.19.14-.1.07-.2.14-.31.21-.14.09-.28.18-.43.27,3.55-3.03,5.33-7.88,5.33-12.65h-18.36v-1.23h20.07Z"/>
            </g>
            <g>
              <path class="anim3_st1" d="M70.03,120.6c0,.06,0,.12,0,.18h0v-.18Z"/>
              <path class="anim3_st9" d="M82.22,87.36c.61-.1,1.23-.16,1.87-.16v15.9c-.63,0-1.25.04-1.87.12v-15.87Z"/>
              <path class="anim3_st9" d="M82.22,105.27c.61-.1,1.23-.16,1.87-.16v10.34c0,1.76-.69,3.41-1.87,4.61-.07.07-.13.13-.2.2-.04.03-.07.07-.11.1-.08.07-.16.14-.24.21-.08.06-.16.12-.24.18-.04.03-.07.05-.11.08-.08.06-.17.12-.26.17-.1.06-.19.12-.29.17-.02.01-.04.02-.05.03-.07.04-.14.08-.22.11-.08.04-.17.08-.25.12-.04.02-.08.04-.12.05-.05.02-.11.05-.16.07-.09.04-.19.07-.28.1-5.5,1.81-9.5,6.93-9.66,13v-2c.16-6.07,4.16-11.18,9.66-13,0,0,.02,0,.03,0,1.52-.51,2.51-1.97,2.51-3.57v-10.8Z"/>
            </g>
          </g>
          <g>
            <g>
              <path class="anim3_st3" d="M84.09,69.3v15.9c-.63,0-1.25.04-1.87.12-6.77.9-12.02,6.61-12.19,13.58v-13.86h0c0-7.13,5.31-14.44,12.2-15.58.61-.1,1.23-.16,1.87-.16Z"/>
              <path class="anim3_st5" d="M118.21,69.3c0,7.77-4.71,15.74-14.06,15.74l-20.06.17v-15.9h34.13Z"/>
              <path class="anim3_st0" d="M118.21,69.3c0,5.49-2.35,11.08-7.03,13.88,3.55-3.03,5.33-7.88,5.33-12.65h-32.42v-1.23h34.13Z"/>
            </g>
            <path class="anim3_st9" d="M84.09,69.3v15.9c-.63,0-1.25.04-1.87.12v-15.87c.61-.1,1.23-.16,1.87-.16Z"/>
          </g>
        </g>
      </g>
    </g>
  </g>
</svg>