<?xml version="1.0" encoding="UTF-8"?>
<svg xmlns="http://www.w3.org/2000/svg" version="1.1" xmlns:xlink="http://www.w3.org/1999/xlink" viewBox="0 0 655.22 202.39">
  <!-- Generator: Adobe Illustrator 30.1.0, SVG Export Plug-In . SVG Version: 2.1.1 Build 136)  -->
  <defs>
    <style>
      .st0 {
        font-size: 16.25px;
      }

      .st0, .st1, .st2 {
        fill: #13253b;
      }

      .st3, .st4, .st5 {
        opacity: .2;
      }

      .st3, .st6 {
        fill: #45b388;
      }

      .st7, .st8, .st9, .st2 {
        font-family: Metropolis-Bold, Metropolis;
        font-weight: 700;
      }

      .st7, .st10 {
        letter-spacing: .08em;
      }

      .st8, .st11 {
        letter-spacing: .07em;
      }

      .st12 {
        fill: #fff;
      }

      .st13 {
        fill: #0cb5e9;
      }

      .st14 {
        fill: none;
        stroke: #45b388;
        stroke-miterlimit: 10;
        stroke-width: 5px;
      }

      .st15 {
        fill: url(#Dégradé_sans_nom_18);
        opacity: .47;
      }

      .st9 {
        letter-spacing: .07em;
      }

      .st10, .st11 {
        font-family: MyriadPro-Regular, 'Myriad Pro';
      }

      .st16 {
        isolation: isolate;
      }

      .st2 {
        font-size: 100.95px;
      }

      .st4, .st17 {
        fill: #201f22;
      }

      .st17 {
        mix-blend-mode: multiply;
        opacity: .1;
      }
    </style>
    <linearGradient id="Dégradé_sans_nom_18" data-name="Dégradé sans nom 18" x1="88.93" y1="52.54" x2="88.93" y2="109.26" gradientUnits="userSpaceOnUse">
      <stop offset=".05" stop-color="#13253b"/>
      <stop offset=".35" stop-color="#12263d"/>
      <stop offset=".51" stop-color="#112b45"/>
      <stop offset=".64" stop-color="#0f3352"/>
      <stop offset=".75" stop-color="#0c3f66"/>
      <stop offset=".85" stop-color="#084e7f"/>
      <stop offset=".94" stop-color="#04609d"/>
      <stop offset="1" stop-color="#0071b8"/>
    </linearGradient>
  </defs>
  <g class="st16">
    <g id="Calque_1">
      <text class="st2" transform="translate(152.7 347.14)"><tspan x="0" y="0">Finarent</tspan></text>
      <text class="st0" transform="translate(152.7 384.89)"><tspan class="st9" x="0" y="0">FINANCEMENT </tspan><tspan class="st11" x="140.65" y="0">•</tspan><tspan class="st7" x="146.45" y="0" xml:space="preserve"> LOCATION </tspan><tspan class="st10" x="254.64" y="0">•</tspan><tspan class="st8" x="260.44" y="0" xml:space="preserve"> ASSURANCE PRO</tspan></text>
      <g>
        <g>
          <g>
            <path class="st1" d="M263.77,56.21c0-4.14,3.53-7.87,8.07-7.87s7.87,3.73,7.87,7.87c0,4.44-3.53,8.07-7.87,8.07s-8.07-3.63-8.07-8.07ZM264.37,71.44h14.73v52.16h-14.73v-52.16Z"/>
            <path class="st1" d="M341.45,90.41v33.19h-14.22v-30.06c0-6.46-4.04-10.9-9.89-10.9-6.15,0-10.9,4.44-10.9,10.09l-.1-.3v31.17h-14.73v-52.16h14.73v6.56c3.13-4.74,8.98-7.77,15.74-7.77,11.3,0,19.37,8.37,19.37,20.18Z"/>
            <path class="st1" d="M400.06,92.42v31.17h-14.22v-5.25c-3.73,4.24-9.68,6.46-15.33,6.46-11.1,0-19.67-6.66-19.67-16.65s9.58-17.35,21.69-17.35c4.24,0,8.88.91,13.32,2.62v-1.01c0-5.55-3.43-10.39-12.01-10.39-4.84,0-9.38,1.61-13.52,3.73l-4.94-9.79c7.36-3.73,14.53-5.75,21.79-5.75,13.62,0,22.9,8.58,22.9,22.19ZM385.84,107.15v-4.84c-3.33-1.21-7.16-1.92-11.2-1.92-5.35,0-9.58,3.13-9.58,7.36s3.73,6.86,8.78,6.86c5.65,0,11-2.62,12.01-7.47Z"/>
            <path class="st1" d="M445.06,70.23v12.41c-10.9,0-17.86,6.25-17.86,16.04v24.92h-14.73v-52.16h14.73v9.68c3.43-6.76,9.89-10.9,17.86-10.9Z"/>
            <path class="st1" d="M490.15,107.15l9.38,9.58c-4.64,4.84-13.62,8.07-21.29,8.07-15.54,0-27.64-11.4-27.64-27.44s11.6-27.14,26.84-27.14c16.34,0,25.93,12.41,25.93,32.08h-37.63c1.72,5.65,6.26,9.48,12.41,9.48,4.14,0,9.18-1.92,12.01-4.64ZM465.94,91.72h23.3c-1.41-5.15-5.25-8.47-11.2-8.47-5.55,0-10.19,3.23-12.11,8.47Z"/>
            <path class="st1" d="M562.89,90.41v33.19h-14.22v-30.06c0-6.46-4.04-10.9-9.89-10.9-6.15,0-10.9,4.44-10.9,10.09l-.1-.3v31.17h-14.73v-52.16h14.73v6.56c3.13-4.74,8.98-7.77,15.74-7.77,11.3,0,19.37,8.37,19.37,20.18Z"/>
            <path class="st1" d="M606.27,120.27c-3.03,2.72-7.77,4.54-12.01,4.54-9.18,0-15.64-6.56-15.64-15.94v-25.52h-7.16v-11.9h7.16v-14.33h14.12v14.33h11.3v11.9h-11.3v23.2c0,3.43,2.22,5.85,4.94,5.85,2.02,0,4.04-.71,5.04-1.71l3.53,9.58Z"/>
          </g>
          <g>
            <path class="st6" d="M203.24,143.01v2.34h5.41v2.09h-5.41v4.27h-2.32v-10.78h8.3v2.09h-5.98Z"/>
            <path class="st6" d="M212.07,140.92h2.32v10.78h-2.32v-10.78Z"/>
            <path class="st6" d="M217.81,140.92h2.31l5.19,6.96v-6.96h2.32v10.78h-2.32l-5.19-6.96v6.96h-2.31v-10.78Z"/>
            <path class="st6" d="M238.24,150h-4.8l-.69,1.69h-2.59l4.39-10.78h2.59l4.39,10.78h-2.6l-.69-1.69ZM237.44,148.04l-1.6-3.94-1.6,3.94h3.2Z"/>
            <path class="st6" d="M244.07,140.92h2.31l5.19,6.96v-6.96h2.32v10.78h-2.32l-5.19-6.96v6.96h-2.31v-10.78Z"/>
            <path class="st6" d="M256.87,146.3c0-3.03,2.63-5.57,5.72-5.57,1.63,0,3.14.69,4.19,1.8l-1.68,1.51c-.63-.72-1.52-1.21-2.51-1.21-1.8,0-3.34,1.6-3.34,3.47s1.54,3.48,3.34,3.48c.99,0,1.88-.49,2.51-1.21l1.68,1.51c-1.05,1.1-2.56,1.8-4.19,1.8-3.09,0-5.72-2.56-5.72-5.58Z"/>
            <path class="st6" d="M271.7,143.01v2.15h5.41v2.09h-5.41v2.37h5.98v2.09h-8.3v-10.78h8.3v2.09h-5.98Z"/>
            <path class="st6" d="M280.7,140.92h2.31l3.34,6.08,3.33-6.08h2.32v10.78h-2.32v-6.71l-3.33,6.08-3.34-6.08v6.71h-2.31v-10.78Z"/>
            <path class="st6" d="M297.7,143.01v2.15h5.41v2.09h-5.41v2.37h5.98v2.09h-8.3v-10.78h8.3v2.09h-5.98Z"/>
            <path class="st6" d="M306.7,140.92h2.31l5.19,6.96v-6.96h2.32v10.78h-2.32l-5.19-6.96v6.96h-2.31v-10.78Z"/>
            <path class="st6" d="M322.71,143.01h-3.36v-2.09h9.04v2.09h-3.36v8.69h-2.32v-8.69Z"/>
            <path class="st6" d="M336.17,147.6c-.02-.93.74-1.65,1.65-1.65s1.65.72,1.65,1.63-.72,1.65-1.65,1.65-1.65-.71-1.65-1.63Z"/>
            <path class="st6" d="M355.42,149.61v2.09h-7.69v-10.78h2.32v8.69h5.36Z"/>
            <path class="st6" d="M357.66,146.3c0-3.03,2.64-5.57,5.72-5.57s5.72,2.54,5.72,5.57-2.6,5.58-5.72,5.58-5.72-2.56-5.72-5.58ZM366.75,146.3c0-1.87-1.54-3.47-3.36-3.47s-3.34,1.6-3.34,3.47,1.54,3.48,3.34,3.48,3.36-1.6,3.36-3.48Z"/>
            <path class="st6" d="M371.57,146.3c0-3.03,2.64-5.57,5.72-5.57,1.63,0,3.14.69,4.19,1.8l-1.68,1.51c-.63-.72-1.52-1.21-2.51-1.21-1.8,0-3.34,1.6-3.34,3.47s1.54,3.48,3.34,3.48c.99,0,1.88-.49,2.51-1.21l1.68,1.51c-1.05,1.1-2.56,1.8-4.19,1.8-3.09,0-5.72-2.56-5.72-5.58Z"/>
            <path class="st6" d="M391.3,150h-4.8l-.69,1.69h-2.59l4.39-10.78h2.59l4.39,10.78h-2.6l-.69-1.69ZM390.5,148.04l-1.6-3.94-1.6,3.94h3.2Z"/>
            <path class="st6" d="M398.8,143.01h-3.36v-2.09h9.03v2.09h-3.36v8.69h-2.32v-8.69Z"/>
            <path class="st6" d="M407.23,140.92h2.32v10.78h-2.32v-10.78Z"/>
            <path class="st6" d="M412.45,146.3c0-3.03,2.64-5.57,5.72-5.57s5.72,2.54,5.72,5.57-2.6,5.58-5.72,5.58-5.72-2.56-5.72-5.58ZM421.53,146.3c0-1.87-1.54-3.47-3.36-3.47s-3.34,1.6-3.34,3.47,1.54,3.48,3.34,3.48,3.36-1.6,3.36-3.48Z"/>
            <path class="st6" d="M426.88,140.92h2.31l5.19,6.96v-6.96h2.32v10.78h-2.32l-5.19-6.96v6.96h-2.31v-10.78Z"/>
            <path class="st6" d="M445.15,147.6c-.02-.93.74-1.65,1.65-1.65s1.65.72,1.65,1.63-.72,1.65-1.65,1.65-1.65-.71-1.65-1.63Z"/>
            <path class="st6" d="M464.01,150h-4.8l-.69,1.69h-2.59l4.39-10.78h2.59l4.39,10.78h-2.6l-.69-1.69ZM463.21,148.04l-1.6-3.94-1.6,3.94h3.2Z"/>
            <path class="st6" d="M469.05,150.1l1.33-1.58c1.02.88,2.18,1.41,3.54,1.41,1.16,0,1.76-.53,1.76-1.21,0-.77-.63-1-2.27-1.38-2.27-.52-3.89-1.16-3.89-3.25s1.63-3.36,3.98-3.36c1.76,0,3.12.55,4.22,1.49l-1.21,1.66c-.96-.77-2.04-1.19-3.07-1.19s-1.58.52-1.58,1.16c0,.78.64,1.03,2.31,1.41,2.32.52,3.86,1.21,3.86,3.2s-1.55,3.42-4.19,3.42c-1.87,0-3.53-.63-4.78-1.79Z"/>
            <path class="st6" d="M480.15,150.1l1.33-1.58c1.02.88,2.18,1.41,3.54,1.41,1.16,0,1.76-.53,1.76-1.21,0-.77-.63-1-2.27-1.38-2.27-.52-3.89-1.16-3.89-3.25s1.63-3.36,3.98-3.36c1.76,0,3.12.55,4.22,1.49l-1.21,1.66c-.96-.77-2.04-1.19-3.07-1.19s-1.58.52-1.58,1.16c0,.78.64,1.03,2.31,1.41,2.32.52,3.86,1.21,3.86,3.2s-1.55,3.42-4.19,3.42c-1.87,0-3.53-.63-4.78-1.79Z"/>
            <path class="st6" d="M491.94,147.04v-6.12h2.31v6.02c0,1.66,1.07,2.84,2.57,2.84s2.56-1.18,2.56-2.84v-6.02h2.32v6.12c0,2.84-2.02,4.85-4.88,4.85s-4.88-2.01-4.88-4.85Z"/>
            <path class="st6" d="M511.45,151.7l-2.46-3.5h-1.71v3.5h-2.31v-10.78h4.85c2.34,0,4.06,1.51,4.06,3.64,0,1.6-.97,2.85-2.45,3.37l2.65,3.76h-2.64ZM507.28,146.08h2.29c1.15,0,1.93-.6,1.93-1.52s-.78-1.52-1.93-1.52h-2.29v3.04Z"/>
            <path class="st6" d="M523.99,150h-4.8l-.69,1.69h-2.59l4.39-10.78h2.59l4.39,10.78h-2.6l-.69-1.69ZM523.19,148.04l-1.6-3.94-1.6,3.94h3.2Z"/>
            <path class="st6" d="M529.82,140.92h2.31l5.19,6.96v-6.96h2.32v10.78h-2.32l-5.19-6.96v6.96h-2.31v-10.78Z"/>
            <path class="st6" d="M542.62,146.3c0-3.03,2.64-5.57,5.72-5.57,1.63,0,3.14.69,4.19,1.8l-1.68,1.51c-.63-.72-1.52-1.21-2.51-1.21-1.8,0-3.34,1.6-3.34,3.47s1.54,3.48,3.34,3.48c.99,0,1.88-.49,2.51-1.21l1.68,1.51c-1.05,1.1-2.56,1.8-4.19,1.8-3.09,0-5.72-2.56-5.72-5.58Z"/>
            <path class="st6" d="M557.45,143.01v2.15h5.41v2.09h-5.41v2.37h5.98v2.09h-8.3v-10.78h8.3v2.09h-5.98Z"/>
            <path class="st6" d="M571.91,140.92h4.85c2.34,0,4.06,1.51,4.06,3.64s-1.72,3.64-4.06,3.64h-2.54v3.5h-2.31v-10.78ZM576.51,146.08c1.15,0,1.93-.6,1.93-1.52s-.78-1.52-1.93-1.52h-2.29v3.04h2.29Z"/>
            <path class="st6" d="M589.92,151.7l-2.46-3.5h-1.71v3.5h-2.31v-10.78h4.85c2.34,0,4.06,1.51,4.06,3.64,0,1.6-.97,2.85-2.45,3.37l2.65,3.76h-2.64ZM585.74,146.08h2.29c1.15,0,1.93-.6,1.93-1.52s-.78-1.52-1.93-1.52h-2.29v3.04Z"/>
            <path class="st6" d="M594.82,146.3c0-3.03,2.64-5.57,5.72-5.57s5.72,2.54,5.72,5.57-2.6,5.58-5.72,5.58-5.72-2.56-5.72-5.58ZM603.9,146.3c0-1.87-1.54-3.47-3.36-3.47s-3.34,1.6-3.34,3.47,1.54,3.48,3.34,3.48,3.36-1.6,3.36-3.48Z"/>
          </g>
        </g>
        <g>
          <g>
            <g>
              <path class="st6" d="M212.08,77.49v19.79c-.79,0-1.56.05-2.32.15-8.42,1.11-14.96,8.22-15.18,16.9v-17.26h0c0-8.88,6.61-17.97,15.18-19.39.76-.13,1.53-.19,2.32-.19Z"/>
              <path class="st6" d="M212.08,99.77v12.87c0,2.19-.86,4.25-2.32,5.74-.08.08-.16.17-.25.24-.04.04-.09.08-.13.12-.1.09-.2.17-.3.26-.1.08-.19.15-.3.23-.04.03-.09.06-.14.1-.11.07-.21.15-.32.21-.12.07-.24.15-.36.21-.02.01-.04.03-.06.04-.09.05-.18.1-.27.14-.11.05-.21.1-.32.15-.05.02-.1.04-.15.06-.06.03-.14.06-.2.08-.12.04-.23.09-.35.13-6.85,2.25-11.83,8.62-12.02,16.18v-17.26h0c0-.07,0-.15,0-.22.11-8.81,6.68-17.69,15.18-19.09.76-.13,1.53-.19,2.32-.19Z"/>
              <path class="st13" d="M194.58,90.76v.45h0c0-.15,0-.3,0-.45Z"/>
            </g>
            <path class="st1" d="M237.05,77.49c0,.14,0,.27,0,.41,0,.02,0,.05,0,.07,0,.14,0,.29-.01.43,0,.15-.01.3-.02.45,0,.15-.02.3-.03.45-.01.12-.02.24-.03.36,0,.05,0,.1-.01.14-.01.13-.03.27-.04.4-.05.45-.12.9-.19,1.35-.05.3-.11.59-.17.89-.03.13-.06.27-.09.4,0,.03-.01.05-.02.08-.03.14-.06.27-.1.4-.03.15-.07.29-.12.44-.03.11-.06.21-.09.31-.06.21-.12.41-.19.62-.09.27-.18.53-.27.79-.15.42-.32.84-.5,1.25-.05.11-.1.21-.14.32-.02.05-.04.09-.06.14-.05.12-.11.23-.17.35-.13.27-.27.53-.41.79-.07.13-.14.26-.22.39-.15.25-.3.51-.46.76-.08.12-.16.24-.24.36-.11.17-.23.34-.36.51-.13.18-.26.35-.4.53-.01.02-.03.04-.05.06-.07.1-.15.19-.23.29-.02.03-.05.07-.09.11-.07.09-.15.18-.22.26-.1.11-.2.22-.3.33-.08.08-.16.17-.24.25-.04.04-.08.08-.12.12-.08.08-.17.17-.25.25-.04.04-.07.07-.11.11-.08.08-.17.17-.26.24-.15.14-.3.27-.46.4,0,.01-.02.01-.02.02-.15.13-.31.26-.47.38-.13.11-.27.2-.4.3-.08.06-.16.12-.24.17-.13.09-.25.18-.38.26-.18.12-.35.23-.54.34-2.42,1.45-5.34,2.3-8.75,2.3l-7.47.21v-19.79h24.97Z"/>
            <g class="st5">
              <path class="st6" d="M237.06,77.49c0,.14,0,.27,0,.41,0,.02,0,.05,0,.07,0,.14,0,.29-.01.43,0,.15-.01.3-.02.45,0,.15-.02.3-.03.45-.01.12-.02.24-.03.36,0,.05,0,.1-.01.14-.01.13-.03.27-.04.4-.05.45-.11.9-.19,1.35-.05.3-.11.59-.17.89-.03.13-.06.27-.09.4,0,.03-.01.05-.02.08-.03.14-.06.27-.1.4-.03.15-.07.29-.12.44-.03.11-.06.21-.09.31-.06.21-.12.41-.19.62-.08.27-.17.53-.27.79-.15.42-.32.84-.5,1.25-.05.11-.1.21-.14.32-.02.05-.04.09-.06.14-.05.12-.11.23-.17.35-.13.27-.27.53-.41.79-.07.13-.14.26-.22.39-.15.25-.3.51-.46.76-.08.12-.16.24-.24.36-.11.17-.23.34-.36.51-.13.18-.26.35-.4.53-.01.02-.03.04-.05.06-.07.1-.15.19-.23.29-.02.03-.05.07-.09.11-.07.09-.15.18-.22.26-.1.11-.2.22-.3.33-.08.08-.16.17-.24.25-.04.04-.08.08-.12.12-.08.08-.17.17-.25.25-.04.04-.07.07-.11.11-.08.08-.17.17-.26.24-.15.14-.3.27-.46.4,0,.01-.02.01-.02.02-.15.13-.31.26-.47.38-.13.11-.27.2-.4.3-.08.06-.16.12-.24.17-.13.09-.25.18-.38.26-.18.12-.35.23-.54.34,4.42-3.77,6.63-9.81,6.63-15.75h-22.85v-1.53h24.98Z"/>
            </g>
            <g>
              <path class="st4" d="M194.58,119.05c0,.07,0,.15,0,.22h0v-.22Z"/>
              <path class="st17" d="M209.76,77.68c.76-.13,1.53-.19,2.32-.19v19.79c-.79,0-1.56.05-2.32.15v-19.75Z"/>
              <path class="st17" d="M209.76,99.97c.76-.13,1.53-.19,2.32-.19v12.87c0,2.19-.86,4.25-2.32,5.74-.08.08-.16.17-.25.24-.04.04-.09.08-.13.12-.1.09-.2.17-.3.26-.1.08-.19.15-.3.23-.04.03-.09.06-.14.1-.11.07-.21.15-.32.21-.12.07-.24.15-.36.21-.02.01-.04.03-.06.04-.09.05-.18.1-.27.14-.11.05-.21.1-.32.15-.05.02-.1.04-.15.06-.06.03-.14.06-.2.08-.12.04-.23.09-.35.13-6.85,2.25-11.83,8.62-12.02,16.18v-2.49c.19-7.56,5.17-13.92,12.02-16.18.01,0,.02,0,.04-.01,1.89-.63,3.12-2.45,3.12-4.44v-13.44Z"/>
            </g>
          </g>
          <g>
            <g>
              <path class="st6" d="M212.08,55.2v19.79c-.79,0-1.56.05-2.32.15-8.42,1.11-14.96,8.22-15.18,16.9v-17.26h0c0-8.88,6.61-17.97,15.18-19.39.76-.13,1.53-.19,2.32-.19Z"/>
              <path class="st1" d="M254.56,55.2c0,9.67-5.86,19.59-17.5,19.59l-24.97.21v-19.79h42.48Z"/>
              <path class="st3" d="M254.56,55.2c0,6.83-2.92,13.79-8.75,17.28,4.42-3.77,6.63-9.81,6.63-15.75h-40.35v-1.53h42.48Z"/>
            </g>
            <path class="st17" d="M212.08,55.2v19.79c-.79,0-1.56.05-2.32.15v-19.75c.76-.13,1.53-.19,2.32-.19Z"/>
          </g>
        </g>
      </g>
      <g>
        <line class="st14" x1="165.53" y1="53.31" x2="165.48" y2="150.71"/>
        <g>
          <g>
            <circle class="st1" cx="88.93" cy="99.12" r="49.61"/>
            <path class="st15" d="M132.56,85.34c-2.77-12.59-11.5-23.87-24.99-29.32-5.46-2.21-11.71-3.47-18.65-3.47-6.45,0-12.32,1.09-17.53,3-14.24,5.25-23.52,16.78-26.12,29.79-2.88,14.44,9.55,20.68,26.12,22.89,5.52.74,11.5,1.03,17.53,1.03,6.43,0,12.82-.39,18.65-1.32,16.07-2.54,27.97-9.1,24.99-22.61Z"/>
          </g>
          <g>
            <g>
              <g>
                <path class="st6" d="M84.09,87.21v15.9c-.63,0-1.25.04-1.87.12-6.77.9-12.02,6.61-12.19,13.58v-13.86h0c0-7.13,5.31-14.44,12.2-15.58.61-.1,1.23-.16,1.87-.16Z"/>
                <path class="st6" d="M84.09,105.11v10.34c0,1.76-.69,3.41-1.87,4.61-.07.07-.13.13-.2.2-.04.03-.07.07-.11.1-.08.07-.16.14-.24.21-.08.06-.16.12-.24.18-.04.03-.07.05-.11.08-.08.06-.17.12-.26.17-.1.06-.19.12-.29.17-.02.01-.04.02-.05.03-.07.04-.14.08-.22.11-.08.04-.17.08-.25.12-.04.02-.08.04-.12.05-.05.02-.11.05-.16.07-.09.04-.19.07-.28.1-5.5,1.81-9.5,6.93-9.66,13v-13.86h0c0-.06,0-.12,0-.18.09-7.08,5.37-14.21,12.19-15.33.61-.1,1.23-.16,1.87-.16Z"/>
                <path class="st13" d="M70.03,97.87v.36h0c0-.12,0-.24,0-.36Z"/>
              </g>
              <path class="st12" d="M104.15,87.21c0,.11,0,.22,0,.33,0,.02,0,.04,0,.06,0,.11,0,.23-.01.34,0,.12-.01.24-.02.36,0,.12-.01.24-.02.36,0,.1-.02.19-.02.29,0,.04,0,.08-.01.11-.01.11-.02.22-.03.32-.04.36-.09.72-.16,1.08-.04.24-.09.48-.14.72-.02.11-.05.22-.07.32,0,.02,0,.04-.02.06-.02.11-.05.22-.08.32-.03.12-.06.23-.09.35-.02.08-.05.17-.07.25-.05.17-.1.33-.15.49-.07.21-.14.42-.22.63-.12.34-.26.67-.4,1-.04.08-.08.17-.11.25-.02.04-.03.07-.05.11-.04.1-.09.19-.14.28-.11.21-.22.43-.33.63-.06.11-.11.21-.17.31-.12.2-.24.41-.37.61-.06.1-.13.19-.19.29-.09.14-.19.28-.29.41-.1.14-.21.28-.32.42,0,.02-.02.03-.04.05-.06.08-.12.15-.19.23-.02.03-.04.05-.07.08-.06.07-.12.14-.18.21-.08.09-.16.18-.24.27-.06.07-.13.13-.19.2-.03.03-.06.07-.1.1-.07.07-.14.14-.2.2-.03.03-.06.06-.09.09-.07.07-.14.13-.21.2-.12.11-.24.22-.37.32,0,0-.01.01-.02.02-.12.11-.25.21-.38.31-.11.08-.22.16-.32.24-.06.05-.13.09-.19.14-.1.07-.2.14-.31.21-.14.09-.28.18-.43.27-1.94,1.17-4.29,1.85-7.03,1.85l-6,.17v-15.9h20.06Z"/>
              <g class="st5">
                <path class="st6" d="M104.15,87.21c0,.11,0,.22,0,.33,0,.02,0,.04,0,.06,0,.11,0,.23-.01.34,0,.12-.01.24-.02.36,0,.12-.01.24-.02.36,0,.1-.02.19-.02.29,0,.04,0,.08-.01.11-.01.11-.02.22-.03.32-.04.36-.09.72-.16,1.08-.04.24-.08.48-.14.72-.02.11-.05.22-.07.32,0,.02,0,.04-.02.06-.02.11-.05.22-.08.32-.03.12-.06.23-.09.35-.02.08-.05.17-.07.25-.05.17-.1.33-.15.49-.07.21-.14.43-.22.63-.12.34-.26.67-.4,1-.04.08-.08.17-.11.25-.02.04-.03.07-.05.11-.04.1-.09.19-.14.28-.11.21-.22.43-.33.63-.06.11-.11.21-.17.31-.12.2-.24.41-.37.61-.06.1-.13.19-.19.29-.09.14-.19.28-.29.41-.1.14-.21.28-.32.42,0,.02-.02.03-.04.05-.06.08-.12.15-.19.23-.02.03-.04.05-.07.08-.06.07-.12.14-.18.21-.08.09-.16.18-.24.27-.06.07-.13.13-.19.2-.03.03-.06.07-.1.1-.07.07-.14.14-.2.2-.03.03-.06.06-.09.09-.07.07-.14.13-.21.2-.12.11-.24.22-.37.32,0,0-.01.01-.02.02-.12.11-.25.21-.38.31-.11.08-.22.16-.32.24-.06.05-.13.09-.19.14-.1.07-.2.14-.31.21-.14.09-.28.18-.43.27,3.55-3.03,5.33-7.88,5.33-12.65h-18.36v-1.23h20.07Z"/>
              </g>
              <g>
                <path class="st4" d="M70.03,120.6c0,.06,0,.12,0,.18h0v-.18Z"/>
                <path class="st17" d="M82.22,87.36c.61-.1,1.23-.16,1.87-.16v15.9c-.63,0-1.25.04-1.87.12v-15.87Z"/>
                <path class="st17" d="M82.22,105.27c.61-.1,1.23-.16,1.87-.16v10.34c0,1.76-.69,3.41-1.87,4.61-.07.07-.13.13-.2.2-.04.03-.07.07-.11.1-.08.07-.16.14-.24.21-.08.06-.16.12-.24.18-.04.03-.07.05-.11.08-.08.06-.17.12-.26.17-.1.06-.19.12-.29.17-.02.01-.04.02-.05.03-.07.04-.14.08-.22.11-.08.04-.17.08-.25.12-.04.02-.08.04-.12.05-.05.02-.11.05-.16.07-.09.04-.19.07-.28.1-5.5,1.81-9.5,6.93-9.66,13v-2c.16-6.07,4.16-11.18,9.66-13,0,0,.02,0,.03,0,1.52-.51,2.51-1.97,2.51-3.57v-10.8Z"/>
              </g>
            </g>
            <g>
              <g>
                <path class="st6" d="M84.09,69.3v15.9c-.63,0-1.25.04-1.87.12-6.77.9-12.02,6.61-12.19,13.58v-13.86h0c0-7.13,5.31-14.44,12.2-15.58.61-.1,1.23-.16,1.87-.16Z"/>
                <path class="st12" d="M118.21,69.3c0,7.77-4.71,15.74-14.06,15.74l-20.06.17v-15.9h34.13Z"/>
                <path class="st3" d="M118.21,69.3c0,5.49-2.35,11.08-7.03,13.88,3.55-3.03,5.33-7.88,5.33-12.65h-32.42v-1.23h34.13Z"/>
              </g>
              <path class="st17" d="M84.09,69.3v15.9c-.63,0-1.25.04-1.87.12v-15.87c.61-.1,1.23-.16,1.87-.16Z"/>
            </g>
          </g>
        </g>
      </g>
    </g>
  </g>
</svg>